<svg id="lsgs-MS4xNC4w--logo-m2fx949p" data-name="Logo vertical monochrome" xmlns="http://www.w3.org/2000/svg" width="120" height="80" viewBox="0 0 120 80" preserveAspectRatio="xMinYMin meet" class="lsgs-MS4xNC4w--logo-monochrome-vertical-svg lsgs-MS4xNC4w--logo-svg " role="img" focusable="false" aria-labelledby="lsgs-MS4xNC4w--logo-m2fx949p-title" fill='white' stroke='white' color='white'><title id="lsgs-MS4xNC4w--logo-m2fx949p-title">Commerzbank Logo</title><g id="Wortmarke"><path id="Commerzbank" d="M5.1494,80h0A5.1338,5.1338,0,0,1,0,74.6355a5.3554,5.3554,0,0,1,5.2859-5.4634A4.8217,4.8217,0,0,1,8.8689,70.7L7.4015,72.2267a3.0248,3.0248,0,0,0-2.1545-.8816c-1.6052,0-2.74,1.4314-2.74,3.2322,0,1.861,1.1158,3.2488,2.7792,3.2488a2.9751,2.9751,0,0,0,2.2912-.9584l1.4093,1.45A4.8344,4.8344,0,0,1,5.1494,80Zm10.0519-2.1333h0a3.2976,3.2976,0,1,0-2.9572-3.2894,3.0215,3.0215,0,0,0,2.9572,3.2894ZM15.1611,80h0a5.1985,5.1985,0,0,1-5.3836-5.3645A5.4039,5.4039,0,0,1,15.24,69.1721a5.1994,5.1994,0,0,1,5.3835,5.3654A5.4015,5.4015,0,0,1,15.1611,80Zm14.1505-.1951,1.7622-5.7369c.3132-.999.5477-2.1337.5477-2.1337h.04s.02,1.1347.1175,2.2715l.47,5.5991h2.3091L33.5409,69.3505H30.5066L28.92,74.5375c-.2539.8436-.5281,1.92-.5281,1.92s-.273-1.0767-.5487-1.94l-1.6054-5.1676H23.1441L22.1264,79.8049H24.3L24.77,74.166c.0972-1.097.1166-2.2317.1166-2.2317h.0389s.2548,1.1347.5676,2.1742l1.7626,5.6964Zm14.5861,0L45.66,74.068c.3136-.999.549-2.1337.549-2.1337h.0384s.02,1.1347.1174,2.2715l.47,5.5991H49.145L48.1262,69.3505H45.0919l-1.5851,5.187c-.2553.8436-.5291,1.92-.5291,1.92s-.2747-1.0767-.5486-1.94l-1.6059-5.1676H37.73l-1.018,10.4544h2.1734l.47-5.6389c.0976-1.097.1175-2.2317.1175-2.2317h.0389s.2539,1.1347.5675,2.1742l1.7618,5.6964Zm7.7492,0h6.7938V77.8092H53.9179V75.5175h3.8373V73.5588H53.9179V71.3451h4.4636V69.3505H51.6469V79.8049Zm14.6165-7.1062h0c0-1.02-.7048-1.392-1.92-1.392h-.9381V74.09h.9381c1.2743,0,1.92-.412,1.92-1.3908Zm2.8,7.1062H66.3619l-2.2325-3.7976h-.724v3.7976H61.134V69.3505h3.1326c3.1519,0,4.3461,1.2326,4.3461,3.3482a2.9963,2.9963,0,0,1-2.1147,2.8965l2.5652,4.21Zm1.3413,0h7.2823V77.8092H73.2622L77.59,71.0743V69.3505H70.503v1.9946H74.73l-4.3259,6.7371v1.7227Zm11.9111-4.3064v2.3488h1.6853c1.1563,0,1.6643-.4116,1.6643-1.2137,0-.8229-.647-1.1351-1.6643-1.1351Zm0-4.1918v2.2715h1.4115c.7244,0,1.35-.3322,1.35-1.1731,0-.8622-.7247-1.0984-1.447-1.0984Zm-2.27,8.4982V69.3505h3.6221c1.8215,0,3.82.4108,3.82,2.6823a2.3151,2.3151,0,0,1-1.742,2.3094v.0194a2.3476,2.3476,0,0,1,2.23,2.428c0,2.1742-2.0759,3.0153-3.9353,3.0153Zm10.9813,0H88.734l3.7211-10.4544h2.8184l3.72,10.4544H96.5472l-.7248-2.1334H91.7493l-.7222,2.1334Zm4.1306-4.0909-.92-2.7808c-.2536-.764-.45-1.4685-.45-1.4685s-.1964.7045-.45,1.4881l-.9213,2.7612Zm5.2563,4.0909H102.53V74.8324c0-.9394-.0587-1.8992-.0587-1.8992s.49.8411,1.0362,1.6618l3.5436,5.21h2.0162V69.3505h-2.1143V74.09c0,.9365.0608,1.8988.0608,1.8988s-.491-.8423-1.0387-1.6663l-3.3864-4.9715H100.414V79.8049Zm11.1669-10.4544V79.8049h2.2715V74.91l3.3482,4.8946H120l-3.8356-5.5991,3.4645-4.8553h-2.6248L113.8524,74.05V69.3505Z"></path></g><g id="Bildmarke"><path id="Bildmarke" d="M79.51,46.4809c-.028-.2257-.0435-.3688-.0677-.58-.036-.3153-.0862-.6543-.119-.8912-.0425-.3063-.14-.8659-.21-1.1986a.0587.0587,0,0,0-.0582-.0443h-19.05s-15.5029-.0009-17.5753-.0023c-.1457,0-.28-.0011-.3058-.0016a21.0409,21.0409,0,0,1-11.978-4,.06.06,0,0,0-.0866.079L41.6786,59.97a.06.06,0,0,0,.0519.03H75.9992a.0605.0605,0,0,0,.049-.025,19.0993,19.0993,0,0,0,3.5472-12.6245C79.5728,47.0606,79.5463,46.7707,79.51,46.4809ZM77.0236,1.6461a.06.06,0,0,0-.0474-.03q-.7629-.0627-1.53-.0623h-.0006a18.6414,18.6414,0,0,0-9.2581,2.47,18.9042,18.9042,0,0,0-3.9588,2.9812q-.2127.2091-.4183.4248a.06.06,0,0,0-.0086.0715C62.467,8.6546,77.74,35.1368,80.0027,39.0788c3.6911,6.43,2.0815,13.1619,1.5624,15.0181a.06.06,0,0,0,.11.0457L94.49,31.9522a.06.06,0,0,0,0-.06ZM43.9017.03,25.9276,31.1652a.06.06,0,0,0,.0013.0621,34.6035,34.6035,0,0,0,3.2937,4.421,18.9485,18.9485,0,0,0,6.0436,4.0756,17.6217,17.6217,0,0,0,3.6176,1.1449.06.06,0,0,0,.0635-.0286c.6887-1.1924,17.8834-30.961,17.9344-31.0489A21.4859,21.4859,0,0,1,68.7333.1165.06.06,0,0,0,68.7143,0H43.9537A.06.06,0,0,0,43.9017.03Z"></path></g></svg>